<svg width="25" height="16" viewBox="0 0 25 16" fill="none" xmlns="http://www.w3.org/2000/svg">
<g id="BR" clip-path="url(#clip0_6687_67)">
<path id="Vector" d="M0 0H24.42V16H0V0Z" fill="#009B3A"/>
<path id="Vector_2" d="M12.21 0.902893L21.9637 7.98593L12.21 15.0643L2.40869 7.98593L12.21 0.902893Z" fill="#FEDF00"/>
<path id="Vector_3" d="M12.21 11.7614C14.3238 11.7614 16.0373 10.0774 16.0373 7.99999C16.0373 5.92262 14.3238 4.23859 12.21 4.23859C10.0963 4.23859 8.38281 5.92262 8.38281 7.99999C8.38281 10.0774 10.0963 11.7614 12.21 11.7614Z" fill="white"/>
<path id="Vector_4" d="M10.2775 7.75207C9.61583 7.75207 8.9732 7.85032 8.36865 8.03278C8.39721 10.0866 10.0966 11.7427 12.1911 11.7427C13.4859 11.7427 14.6331 11.1065 15.3234 10.138C14.1381 8.68775 12.3149 7.75207 10.2775 7.75207ZM15.9422 8.70178C15.985 8.46786 16.0136 8.22927 16.0136 7.98131C16.0136 5.90412 14.2999 4.21991 12.1864 4.21991C10.6107 4.21991 9.25882 5.16026 8.66855 6.49359C9.18741 6.39067 9.72056 6.33453 10.268 6.33453C12.4958 6.33921 14.5046 7.24681 15.9422 8.70178Z" fill="#002776"/>
</g>
<defs>
<clipPath id="clip0_6687_67">
<rect width="24.42" height="16" fill="white"/>
</clipPath>
</defs>
</svg>
