<svg width="220" height="39" viewBox="0 0 220 39" fill="none" xmlns="http://www.w3.org/2000/svg">
<path d="M19.3516 37.9609C21.7266 37.9609 24.1562 37.4219 26.6406 36.3438C29.1406 35.25 31.1172 33.6484 32.5703 31.5391C32.5703 31.3359 32.4766 31.1641 32.2891 31.0234C32.1172 30.8828 31.9219 30.8125 31.7031 30.8125C29.3594 33.6562 25.9141 35.0781 21.3672 35.0781C16.5703 35.0781 12.9453 33.6328 10.4922 30.7422C8.05469 27.8359 6.83594 24.2266 6.83594 19.9141C6.83594 17.9609 7.04688 16.0781 7.46875 14.2656C7.90625 12.4375 8.57812 10.6953 9.48438 9.03906C10.4062 7.36719 11.7109 6.01562 13.3984 4.98438C15.1016 3.95312 17.0859 3.4375 19.3516 3.4375C20.8984 3.4375 22.3281 3.67969 23.6406 4.16406C24.9531 4.64844 26.0312 5.21875 26.875 5.875C27.7188 6.53125 28.5391 7.41406 29.3359 8.52344C30.1484 9.61719 30.7578 10.5703 31.1641 11.3828C31.5859 12.1797 32.0859 13.1953 32.6641 14.4297C33.1328 14.3672 33.4219 14.1953 33.5312 13.9141C32.375 9.27344 30.625 6.09375 28.2812 4.375C25.9531 2.64062 22.9766 1.77344 19.3516 1.77344C17.8828 1.77344 16.3828 1.95312 14.8516 2.3125C13.3203 2.65625 11.7422 3.28125 10.1172 4.1875C8.50781 5.07812 7.08594 6.1875 5.85156 7.51562C4.61719 8.82812 3.60156 10.5625 2.80469 12.7188C2.00781 14.8594 1.60938 17.2578 1.60938 19.9141C1.60938 22.5703 2.00781 24.9688 2.80469 27.1094C3.60156 29.25 4.61719 30.9766 5.85156 32.2891C7.08594 33.6016 8.50781 34.7031 10.1172 35.5938C11.7422 36.4688 13.3203 37.0781 14.8516 37.4219C16.3828 37.7812 17.8828 37.9609 19.3516 37.9609ZM32.0781 15.4844C31.4062 13.9844 30.7891 12.75 30.2266 11.7812C29.6641 10.7969 28.9141 9.70312 27.9766 8.5C27.0391 7.28125 25.9219 6.33594 24.625 5.66406C23.3281 4.99219 21.875 4.58594 20.2656 4.44531C18.4844 4.58594 16.9297 5.15625 15.6016 6.15625C14.2734 7.14062 13.2422 8.40625 12.5078 9.95312C11.7891 11.5 11.2578 13.1094 10.9141 14.7812C10.5859 16.4375 10.4219 18.1484 10.4219 19.9141C10.4219 23.8516 11.4141 27.1562 13.3984 29.8281C15.3828 32.5 18.3438 33.9297 22.2812 34.1172C26.0938 33.9297 29.0859 32.5078 31.2578 29.8516C31.8672 29.8516 32.3984 30.0547 32.8516 30.4609C33.3047 30.8516 33.5312 31.3203 33.5312 31.8672C31.9531 34.1641 29.8203 35.9141 27.1328 37.1172C24.4453 38.3203 21.8516 38.9219 19.3516 38.9219C17.7891 38.9219 16.2031 38.7344 14.5938 38.3594C13 38 11.3438 37.3594 9.625 36.4375C7.92188 35.5 6.41406 34.3359 5.10156 32.9453C3.78906 31.5547 2.71875 29.7344 1.89062 27.4844C1.0625 25.2188 0.648438 22.6953 0.648438 19.9141C0.648438 17.0078 1.07812 14.4141 1.9375 12.1328C2.79688 9.83594 3.89844 8 5.24219 6.625C6.58594 5.25 8.15625 4.10938 9.95312 3.20312C11.75 2.28125 13.4922 1.65625 15.1797 1.32812C16.8828 0.984375 18.5938 0.8125 20.3125 0.8125C22.6562 0.8125 25.2031 1.125 27.9531 1.75C30.7031 2.375 32.6719 2.76562 33.8594 2.92188C33.3438 4.9375 33.1406 6.71094 33.25 8.24219C33.3594 9.75781 33.8047 11.6172 34.5859 13.8203C34.1328 14.7422 33.2969 15.2969 32.0781 15.4844ZM44.6406 19.9609C45.375 20.0859 45.9531 20.375 46.375 20.8281C46.8125 21.2656 47.0312 21.8281 47.0312 22.5156C47.0312 23.3438 46.7578 24.0312 46.2109 24.5781C45.6641 25.1094 44.9453 25.375 44.0547 25.375C43.1328 25.375 42.2969 25.0469 41.5469 24.3906C40.7969 23.7344 40.4219 22.8047 40.4219 21.6016C40.4219 19.5547 41.3906 17.8984 43.3281 16.6328C45.2812 15.3672 47.8281 14.7344 50.9688 14.7344C53.9531 14.7344 56.0469 15.3359 57.25 16.5391C58.4688 17.7266 59.0781 19.7344 59.0781 22.5625V30.7656L60.5781 30.7188C61.8594 30.8125 62.75 31.4219 63.25 32.5469L62.5 33.8359C62.0156 34.5703 61.6094 35.1406 61.2812 35.5469C60.9688 35.9375 60.5156 36.3828 59.9219 36.8828C59.3281 37.3828 58.6328 37.7422 57.8359 37.9609C57.0391 38.1797 56.1094 38.2891 55.0469 38.2891C53.7344 38.2891 52.7422 37.7969 52.0703 36.8125C50.3828 38.0312 48.1797 38.6406 45.4609 38.6406C44.2734 38.6406 43.2578 38.4531 42.4141 38.0781C41.5859 37.7188 40.9766 37.2344 40.5859 36.625C40.2109 36.0156 39.9453 35.4453 39.7891 34.9141C39.6328 34.3828 39.5547 33.8438 39.5547 33.2969C39.5547 31 40.3281 29.2812 41.875 28.1406C43.4219 27 46.5469 25.8281 51.25 24.625V22.0703C51.25 20.8203 50.9844 19.9062 50.4531 19.3281C49.9375 18.75 49.2656 18.4609 48.4375 18.4609C46.6719 18.4609 45.4062 18.9609 44.6406 19.9609ZM52.2109 26.8281V31.7266C50.7109 33.7109 49.1797 34.7031 47.6172 34.7031C46.7109 34.7031 45.9688 34.4844 45.3906 34.0469C44.8281 33.6094 44.5469 32.9922 44.5469 32.1953C44.5469 30.9141 45.0703 29.8594 46.1172 29.0312C47.1797 28.2031 49.2109 27.4688 52.2109 26.8281ZM51.25 31.4219V28.5625C48.9844 29.3906 47.8516 30.6016 47.8516 32.1953C47.8516 32.8672 48.0938 33.3359 48.5781 33.6016C49.4062 33.3047 50.2969 32.5781 51.25 31.4219ZM44.0547 23.3125C43.5078 23.3125 43.125 22.9141 42.9062 22.1172C42.5938 20.8359 42.9766 19.7188 44.0547 18.7656C45.1172 17.8281 46.7188 17.3594 48.8594 17.3594C49.875 17.3594 50.6875 17.7578 51.2969 18.5547C51.9062 19.3359 52.2109 20.5078 52.2109 22.0703V25.3281C47.6016 26.5156 44.5 27.6406 42.9062 28.7031C41.3125 29.75 40.5156 31.2812 40.5156 33.2969C40.5156 34.3594 40.875 35.3594 41.5938 36.2969C42.3125 37.2188 43.6016 37.6797 45.4609 37.6797C46.1953 37.6797 46.8828 37.5625 47.5234 37.3281C48.1797 37.0938 48.8516 36.7188 49.5391 36.2031C50.2422 35.6719 50.6719 35.3359 50.8281 35.1953C50.9844 35.0547 51.2422 34.8125 51.6016 34.4688C51.9766 34.1094 52.1797 33.9141 52.2109 33.8828C52.4141 36.1797 53.3594 37.3281 55.0469 37.3281C55.4688 37.3281 55.9531 37.2188 56.5 37C57.0469 36.7812 57.5938 36.3516 58.1406 35.7109C58.7031 35.0703 59.0547 34.6484 59.1953 34.4453C59.3516 34.2266 59.5781 33.8906 59.875 33.4375C60.1719 32.9688 60.3906 32.6484 60.5312 32.4766C60.3281 32.0391 59.9375 31.7891 59.3594 31.7266C58.5 33.0391 57.625 33.6797 56.7344 33.6484C56.0938 33.6172 55.7734 33.1641 55.7734 32.2891V22.5625C55.7734 20.0625 55.2812 18.2969 54.2969 17.2656C53.3281 16.2188 51.6562 15.6953 49.2812 15.6953C47.1406 15.6953 45.2812 16.25 43.7031 17.3594C42.1406 18.4531 41.3594 19.8672 41.3594 21.6016C41.3594 22.4922 41.6328 23.1875 42.1797 23.6875C42.7266 24.1719 43.3516 24.4141 44.0547 24.4141C44.2734 24.1016 44.2734 23.7344 44.0547 23.3125ZM69.7188 37.2812C68.9688 37.5312 68.2344 37.8359 67.5156 38.1953C66.7812 37.7422 66.2969 37.2812 66.0625 36.8125C66.0938 36.7188 66.1406 36.3984 66.2031 35.8516C66.2656 35.3047 66.3281 34.6641 66.3906 33.9297C66.4688 33.1953 66.5312 32.4375 66.5781 31.6562C66.625 30.875 66.6484 30.2109 66.6484 29.6641C67.3828 29.3203 68.5156 29.1484 70.0469 29.1484C70.2188 29.1484 70.3906 29.1484 70.5625 29.1484C70.7344 29.1484 70.9141 29.1562 71.1016 29.1719C72.2266 32.8281 73.7656 34.8125 75.7188 35.125C76.5156 35 77.125 34.7109 77.5469 34.2578C77.9844 33.7891 78.2031 33.2656 78.2031 32.6875C78.2031 32.2656 78.0859 31.875 77.8516 31.5156C77.6172 31.1406 77.3047 30.7969 76.9141 30.4844C76.5234 30.1719 76.0625 29.8828 75.5312 29.6172C75.0156 29.3516 74.4688 29.0938 73.8906 28.8438C73.3125 28.5781 72.7266 28.3281 72.1328 28.0938C71.5391 27.8438 70.9688 27.5859 70.4219 27.3203C69.8438 27.0547 69.2969 26.7344 68.7812 26.3594C68.2656 25.9688 67.8125 25.5312 67.4219 25.0469C67.0312 24.5469 66.7188 24 66.4844 23.4062C66.2656 22.8125 66.1562 22.1719 66.1562 21.4844C66.1562 20.75 66.2812 19.9844 66.5312 19.1875C66.7812 18.3906 67.2109 17.6641 67.8203 17.0078C68.4297 16.3516 69.25 15.8125 70.2812 15.3906C71.3125 14.9531 72.6094 14.7344 74.1719 14.7344C75.9062 14.7344 77.1875 14.8281 78.0156 15.0156L78.8828 14.7344H80.4766C80.6797 16.0625 80.9219 17.3047 81.2031 18.4609C81.5 19.6172 81.8281 20.6953 82.1875 21.6953C81.5156 22.3672 80.7031 22.7031 79.75 22.7031C79.2188 22.0781 78.7266 21.5156 78.2734 21.0156C77.8203 20.5 77.3828 20.0547 76.9609 19.6797C76.5547 19.3047 76.1484 19 75.7422 18.7656C75.3516 18.5312 74.9453 18.3672 74.5234 18.2734C73.4922 18.4453 72.9766 18.9141 72.9766 19.6797C72.9766 20.2891 73.2422 20.8203 73.7734 21.2734C74.3047 21.7266 74.9688 22.1406 75.7656 22.5156C76.5625 22.8906 77.4297 23.25 78.3672 23.5938C79.3203 23.9219 80.2188 24.2734 81.0625 24.6484C81.6719 24.9141 82.2422 25.2578 82.7734 25.6797C83.3203 26.1016 83.7969 26.5938 84.2031 27.1562C84.6094 27.7031 84.9297 28.3203 85.1641 29.0078C85.3984 29.6797 85.5156 30.4062 85.5156 31.1875C85.5156 32.3438 85.2188 33.3828 84.625 34.3047C84.0469 35.2266 83.2734 36.0078 82.3047 36.6484C81.3516 37.2891 80.2578 37.7812 79.0234 38.125C77.7891 38.4688 76.5312 38.6406 75.25 38.6406C73.0469 38.6406 71.2031 38.1875 69.7188 37.2812ZM75.0859 37.6797C77.0391 37.6797 78.7109 37.1016 80.1016 35.9453C81.4922 34.7891 82.1875 33.4922 82.1875 32.0547C82.1875 30.6484 81.7578 29.4375 80.8984 28.4219C80.0391 27.3906 79 26.5938 77.7812 26.0312C76.5625 25.4688 75.3359 24.9531 74.1016 24.4844C72.8672 24 71.8203 23.4375 70.9609 22.7969C70.1016 22.1562 69.6719 21.4062 69.6719 20.5469C69.6719 19.4531 70.0781 18.625 70.8906 18.0625C71.7031 17.5 72.6562 17.2188 73.75 17.2188C74.9062 17.2188 75.9375 17.5781 76.8438 18.2969C77.75 19.0156 78.8594 20.1641 80.1719 21.7422C80.5938 21.7422 80.8984 21.6406 81.0859 21.4375C80.5078 19.7812 79.6484 18.4141 78.5078 17.3359C77.3828 16.2422 75.9375 15.6953 74.1719 15.6953C71.6562 15.6953 69.8516 16.2969 68.7578 17.5C67.6641 18.6875 67.1172 20.0156 67.1172 21.4844C67.1172 22.7344 67.5312 23.8047 68.3594 24.6953C69.2031 25.5703 70.2109 26.25 71.3828 26.7344C72.5703 27.2031 73.75 27.6719 74.9219 28.1406C76.0938 28.6094 77.0938 29.2188 77.9219 29.9688C78.75 30.7188 79.1641 31.625 79.1641 32.6875C79.1641 33.5781 78.7812 34.375 78.0156 35.0781C77.25 35.7812 76.1797 36.1328 74.8047 36.1328C73.1484 36.1328 71.8672 35.6094 70.9609 34.5625C70.0703 33.5 69.3203 32.0234 68.7109 30.1328C68.1641 30.1328 67.7969 30.1797 67.6094 30.2734C67.6094 31.3984 67.5547 32.6875 67.4453 34.1406C67.3359 35.5938 67.2266 36.4531 67.1172 36.7188C67.2266 36.875 67.375 37.0156 67.5625 37.1406C68.2031 36.6875 68.6953 36.2109 69.0391 35.7109C70.4141 36.4766 71.4844 36.9922 72.25 37.2578C73.0312 37.5391 73.9766 37.6797 75.0859 37.6797ZM95.0312 19.9609C95.7656 20.0859 96.3438 20.375 96.7656 20.8281C97.2031 21.2656 97.4219 21.8281 97.4219 22.5156C97.4219 23.3438 97.1484 24.0312 96.6016 24.5781C96.0547 25.1094 95.3359 25.375 94.4453 25.375C93.5234 25.375 92.6875 25.0469 91.9375 24.3906C91.1875 23.7344 90.8125 22.8047 90.8125 21.6016C90.8125 19.5547 91.7812 17.8984 93.7188 16.6328C95.6719 15.3672 98.2188 14.7344 101.359 14.7344C104.344 14.7344 106.438 15.3359 107.641 16.5391C108.859 17.7266 109.469 19.7344 109.469 22.5625V30.7656L110.969 30.7188C112.25 30.8125 113.141 31.4219 113.641 32.5469L112.891 33.8359C112.406 34.5703 112 35.1406 111.672 35.5469C111.359 35.9375 110.906 36.3828 110.312 36.8828C109.719 37.3828 109.023 37.7422 108.227 37.9609C107.43 38.1797 106.5 38.2891 105.438 38.2891C104.125 38.2891 103.133 37.7969 102.461 36.8125C100.773 38.0312 98.5703 38.6406 95.8516 38.6406C94.6641 38.6406 93.6484 38.4531 92.8047 38.0781C91.9766 37.7188 91.3672 37.2344 90.9766 36.625C90.6016 36.0156 90.3359 35.4453 90.1797 34.9141C90.0234 34.3828 89.9453 33.8438 89.9453 33.2969C89.9453 31 90.7188 29.2812 92.2656 28.1406C93.8125 27 96.9375 25.8281 101.641 24.625V22.0703C101.641 20.8203 101.375 19.9062 100.844 19.3281C100.328 18.75 99.6562 18.4609 98.8281 18.4609C97.0625 18.4609 95.7969 18.9609 95.0312 19.9609ZM102.602 26.8281V31.7266C101.102 33.7109 99.5703 34.7031 98.0078 34.7031C97.1016 34.7031 96.3594 34.4844 95.7812 34.0469C95.2188 33.6094 94.9375 32.9922 94.9375 32.1953C94.9375 30.9141 95.4609 29.8594 96.5078 29.0312C97.5703 28.2031 99.6016 27.4688 102.602 26.8281ZM101.641 31.4219V28.5625C99.375 29.3906 98.2422 30.6016 98.2422 32.1953C98.2422 32.8672 98.4844 33.3359 98.9688 33.6016C99.7969 33.3047 100.688 32.5781 101.641 31.4219ZM94.4453 23.3125C93.8984 23.3125 93.5156 22.9141 93.2969 22.1172C92.9844 20.8359 93.3672 19.7188 94.4453 18.7656C95.5078 17.8281 97.1094 17.3594 99.25 17.3594C100.266 17.3594 101.078 17.7578 101.688 18.5547C102.297 19.3359 102.602 20.5078 102.602 22.0703V25.3281C97.9922 26.5156 94.8906 27.6406 93.2969 28.7031C91.7031 29.75 90.9062 31.2812 90.9062 33.2969C90.9062 34.3594 91.2656 35.3594 91.9844 36.2969C92.7031 37.2188 93.9922 37.6797 95.8516 37.6797C96.5859 37.6797 97.2734 37.5625 97.9141 37.3281C98.5703 37.0938 99.2422 36.7188 99.9297 36.2031C100.633 35.6719 101.062 35.3359 101.219 35.1953C101.375 35.0547 101.633 34.8125 101.992 34.4688C102.367 34.1094 102.57 33.9141 102.602 33.8828C102.805 36.1797 103.75 37.3281 105.438 37.3281C105.859 37.3281 106.344 37.2188 106.891 37C107.438 36.7812 107.984 36.3516 108.531 35.7109C109.094 35.0703 109.445 34.6484 109.586 34.4453C109.742 34.2266 109.969 33.8906 110.266 33.4375C110.562 32.9688 110.781 32.6484 110.922 32.4766C110.719 32.0391 110.328 31.7891 109.75 31.7266C108.891 33.0391 108.016 33.6797 107.125 33.6484C106.484 33.6172 106.164 33.1641 106.164 32.2891V22.5625C106.164 20.0625 105.672 18.2969 104.688 17.2656C103.719 16.2188 102.047 15.6953 99.6719 15.6953C97.5312 15.6953 95.6719 16.25 94.0938 17.3594C92.5312 18.4531 91.75 19.8672 91.75 21.6016C91.75 22.4922 92.0234 23.1875 92.5703 23.6875C93.1172 24.1719 93.7422 24.4141 94.4453 24.4141C94.6641 24.1016 94.6641 23.7344 94.4453 23.3125Z" fill="#1E1E1E"/>
<path d="M144.508 29.9453H144.602L154 4.82031H149.312V2.94531H160.492V4.82031H156.273L144.086 37.3516H142.234L130.797 4.82031H126.156V2.94531H140.57V4.82031H135.695L144.508 29.9453ZM168.836 35.125H172.352V37H161.102V35.125H164.617V18.9062H161.102V17.0312H168.836V35.125ZM166.727 10.4219C166.32 10.4219 165.945 10.3594 165.602 10.2344C165.273 10.0938 164.977 9.89844 164.711 9.64844C164.461 9.39844 164.266 9.10938 164.125 8.78125C163.984 8.4375 163.914 8.05469 163.914 7.63281C163.914 7.22656 163.984 6.85156 164.125 6.50781C164.281 6.16406 164.484 5.86719 164.734 5.61719C164.984 5.36719 165.281 5.17188 165.625 5.03125C165.969 4.89062 166.336 4.82031 166.727 4.82031C167.117 4.82031 167.484 4.89062 167.828 5.03125C168.172 5.15625 168.469 5.34375 168.719 5.59375C168.984 5.84375 169.188 6.14062 169.328 6.48438C169.469 6.8125 169.539 7.1875 169.539 7.60938C169.539 8.03125 169.461 8.41406 169.305 8.75781C169.164 9.10156 168.969 9.39844 168.719 9.64844C168.469 9.88281 168.172 10.0703 167.828 10.2109C167.484 10.3516 167.117 10.4219 166.727 10.4219ZM184.492 37.3281L176.219 18.9062H172.727V17.0312H184.117V18.9062H180.836L186.648 31.9141H186.742L192.531 18.9062H189.25V17.0312H197.922V18.9062H194.5L186.367 37.3281H184.492ZM219.039 37C218.383 37.125 217.773 37.2031 217.211 37.2344C216.648 37.2656 216.203 37.2812 215.875 37.2812C215.047 37.2812 214.359 37.2109 213.812 37.0703C213.281 36.9453 212.859 36.7578 212.547 36.5078C212.234 36.2578 212.008 35.9531 211.867 35.5938C211.727 35.2344 211.641 34.8359 211.609 34.3984H211.492C211.055 35.0078 210.586 35.5234 210.086 35.9453C209.586 36.3672 209.062 36.7031 208.516 36.9531C207.969 37.2031 207.406 37.3828 206.828 37.4922C206.266 37.6016 205.695 37.6562 205.117 37.6562C204.164 37.6562 203.312 37.5234 202.562 37.2578C201.812 37.0078 201.18 36.6484 200.664 36.1797C200.148 35.7109 199.758 35.1562 199.492 34.5156C199.227 33.8594 199.094 33.1406 199.094 32.3594C199.094 30.1875 200.156 28.5391 202.281 27.4141C204.422 26.2734 207.5 25.6641 211.516 25.5859C211.531 24.8828 211.539 24.25 211.539 23.6875C211.555 23.125 211.562 22.5703 211.562 22.0234C211.562 20.6016 211.266 19.6094 210.672 19.0469C210.094 18.4688 209.172 18.1797 207.906 18.1797C207.062 18.1797 206.305 18.2734 205.633 18.4609C204.977 18.6484 204.438 18.8984 204.016 19.2109C204.391 19.5703 204.664 19.9531 204.836 20.3594C205.023 20.75 205.117 21.1406 205.117 21.5312C205.117 22.1875 204.906 22.7344 204.484 23.1719C204.062 23.6094 203.484 23.8281 202.75 23.8281C202.438 23.8281 202.133 23.7812 201.836 23.6875C201.539 23.5938 201.281 23.4453 201.062 23.2422C200.844 23.0391 200.664 22.7891 200.523 22.4922C200.398 22.1797 200.336 21.8203 200.336 21.4141C200.336 20.7734 200.508 20.1562 200.852 19.5625C201.211 18.9531 201.734 18.4141 202.422 17.9453C203.125 17.4766 203.992 17.1016 205.023 16.8203C206.07 16.5391 207.289 16.3984 208.68 16.3984C209.805 16.3984 210.797 16.5078 211.656 16.7266C212.531 16.9453 213.266 17.3125 213.859 17.8281C214.469 18.3281 214.922 19 215.219 19.8438C215.531 20.6875 215.688 21.7344 215.688 22.9844C215.688 23.2969 215.68 23.8125 215.664 24.5312C215.664 25.2344 215.656 26.0156 215.641 26.875C215.625 27.7344 215.609 28.6094 215.594 29.5C215.594 30.375 215.594 31.1484 215.594 31.8203C215.594 32.5078 215.609 33.0859 215.641 33.5547C215.672 34.0078 215.75 34.375 215.875 34.6562C216 34.9219 216.188 35.1172 216.438 35.2422C216.688 35.3516 217.039 35.4062 217.492 35.4062C217.883 35.4062 218.398 35.3594 219.039 35.2656V37ZM211.516 27.3438C209.812 27.3906 208.438 27.5234 207.391 27.7422C206.344 27.9453 205.531 28.2422 204.953 28.6328C204.375 29.0078 203.984 29.4688 203.781 30.0156C203.578 30.5625 203.477 31.1875 203.477 31.8906C203.477 33.1094 203.727 34.0234 204.227 34.6328C204.742 35.2266 205.445 35.5234 206.336 35.5234C206.82 35.5234 207.359 35.4219 207.953 35.2188C208.562 35.0156 209.133 34.6875 209.664 34.2344C210.195 33.7656 210.633 33.1562 210.977 32.4062C211.336 31.6562 211.516 30.7266 211.516 29.6172V27.3438Z" fill="#F6623E"/>
</svg>
